<?xml version="1.0" encoding="utf-8"?>
<!-- Generator: Adobe Illustrator 22.1.0, SVG Export Plug-In . SVG Version: 6.00 Build 0)  -->
<svg version="1.1" id="Layer_1" xmlns="http://www.w3.org/2000/svg" xmlns:xlink="http://www.w3.org/1999/xlink" x="0px" y="0px"
	 viewBox="0 0 44.8 45" style="enable-background:new 0 0 44.8 45;" xml:space="preserve">
<style type="text/css">
	.st0{fill:#AF9230;}
	.st1{fill:none;stroke:#A68A30;stroke-width:1.7573;stroke-miterlimit:10;}
</style>
<g>
	<path class="st0" d="M34.1,32.8c0,0.6,0,1.3-0.1,1.9c-0.3,1.8-1.8,3.2-3.7,3.3c-5.6,0.4-10.6-1.1-15-4.5c-4.2-3.1-6.9-7.3-8.2-12.4
		c-0.4-1.3-0.6-2.7-0.6-4.1C6.3,15,8,13.1,10,12.9c0.8-0.1,1.5-0.1,2.3-0.2c0.3,0,0.5,0.1,0.6,0.4c0.8,1.9,1.5,3.7,2.3,5.6
		c0.1,0.3,0.1,0.5-0.2,0.7c-0.8,0.6-1.5,1.2-2.3,1.8c-0.4,0.3-0.4,0.5-0.2,0.9c2.6,5.1,6.7,8.6,12.1,10.5c0.4,0.2,0.6,0.1,0.9-0.3
		c0.5-0.8,0.9-1.6,1.4-2.5c0.2-0.4,0.4-0.5,0.8-0.3c1.9,0.5,3.8,1,5.7,1.5c0.4,0.1,0.5,0.2,0.5,0.6C34,32,34,32.4,34.1,32.8
		C34,32.8,34,32.8,34.1,32.8z"/>
	<path class="st0" d="M35.3,22.2c0.1,0.7-0.3,1.2-0.9,1.2c-0.6,0.1-1.1-0.3-1.2-1c-0.5-3.2-2.1-5.8-4.7-7.8
		c-2.1-1.6-4.6-2.5-7.3-2.5c-0.6,0-1-0.5-1-1c0-0.5,0.4-1,1-1c2.1,0,4.1,0.4,5.9,1.4c4,2,6.6,5.1,7.8,9.4c0,0.2,0.1,0.3,0.1,0.5
		C35.2,21.7,35.2,21.9,35.3,22.2z"/>
	<path class="st0" d="M31.2,22.6c0,0.6-0.3,1.1-0.8,1.1c-0.6,0.1-1.1-0.3-1.2-0.8c-0.7-3.5-3.5-6.1-7-6.6c-0.2,0-0.4,0-0.6,0
		c-0.6,0-1-0.5-1-1c0-0.5,0.4-1,1-1c1.2,0,2.4,0.3,3.6,0.8c3.2,1.4,5.3,3.9,6.1,7.3C31.2,22.4,31.2,22.5,31.2,22.6z"/>
	<path class="st0" d="M26.2,24c-0.5,0-0.9-0.3-1.1-0.8c-0.3-1-0.9-1.8-1.8-2.3c-0.5-0.3-1.1-0.4-1.6-0.6c-0.4-0.1-0.8-0.4-0.8-0.8
		c-0.1-0.5,0.1-0.9,0.5-1.1c0.2-0.1,0.5-0.1,0.7-0.1c2.5,0.5,4.1,1.9,4.9,4.3C27.3,23.3,26.9,24,26.2,24z"/>
</g>
<circle class="st1" cx="22" cy="22.7" r="21.2"/>
</svg>
