<?xml version="1.0" encoding="utf-8"?>
<!-- Generator: Adobe Illustrator 22.1.0, SVG Export Plug-In . SVG Version: 6.00 Build 0)  -->
<svg version="1.1" id="Layer_1" xmlns="http://www.w3.org/2000/svg" xmlns:xlink="http://www.w3.org/1999/xlink" x="0px" y="0px"
	 viewBox="0 0 64.7 49.3" style="enable-background:new 0 0 64.7 49.3;" xml:space="preserve">
<style type="text/css">
	.st0{fill:#AF9230;}
</style>
<g>
	<g>
		<path class="st0" d="M32.4,1.2c7,0,13.9,0,20.9,0c3.5,0,6.4,1.3,8.5,4.2c1.2,1.6,1.9,3.4,1.9,5.4c0.1,3.9,0,7.8,0,11.8
			c0,5.1,0,10.3,0,15.4c0,4.9-3.2,9-7.9,10c-0.9,0.2-1.7,0.3-2.6,0.3c-13.9,0-27.8,0-41.7,0c-5.4,0-9.5-3.4-10.4-8.7
			C1,38.9,1,38.4,1,37.8C1,29,1,20.3,1,11.5c0-5,3.2-9.1,7.8-10.1c0.9-0.2,1.8-0.3,2.8-0.3C18.5,1.2,25.5,1.2,32.4,1.2z M32.3,45.2
			c7,0,13.9,0,20.9,0c4.5,0,7.5-2.9,7.5-7.4c0-8.7,0-17.4,0-26.1c0-4.5-3-7.4-7.5-7.4c-13.9,0-27.8,0-41.6,0c-0.5,0-1,0-1.5,0.1
			c-3.6,0.5-6,3.4-6,7.3C4,20.3,4,29,4,37.7c0,0.6,0,1.1,0.1,1.7c0.6,3.4,3.5,5.8,7.2,5.8C18.3,45.2,25.3,45.2,32.3,45.2z"/>
		<path class="st0" d="M41.7,25.1c1.2,1.1,2.2,2.1,3.2,3c3.6,3.4,11.7,11,15.3,14.3c1.1,1,0.8,2.4-0.5,2.8c-0.7,0.2-1.2-0.1-1.6-0.5
			c-1.2-1.2-7.1-6.6-8.3-7.7c-3.2-3-6.4-6-9.5-9c-0.2-0.2-0.4-0.3-0.6-0.6c-0.2,0.2-0.4,0.4-0.6,0.6c-1.7,1.7-3.4,3.3-5.1,5
			c-1.2,1.2-1.8,1.2-3.1,0c-1.7-1.7-3.4-3.3-5.1-5c-0.2-0.2-0.4-0.3-0.6-0.6c-0.2,0.2-0.4,0.3-0.6,0.5c-4.2,4-13.1,12.4-17.3,16.3
			c-0.3,0.3-0.6,0.6-0.9,0.9c-0.8,0.6-1.7,0.6-2.3-0.1c-0.6-0.7-0.5-1.4,0.2-2.2c2.6-2.5,10-9.5,12.7-12c1.8-1.7,3.7-3.5,5.5-5.2
			c0.1-0.1,0.2-0.2,0.5-0.6c-0.2-0.1-0.5-0.3-0.7-0.4C18,20.4,9.3,11.7,5,7.5C4.7,7.2,4.5,7,4.3,6.7C3.9,6.2,3.9,5.4,4.4,4.9
			c0.5-0.6,1.3-0.8,1.9-0.4C6.6,4.7,6.8,5,7.1,5.2c6.8,6.6,17.8,17.6,24.6,24.2c0.2,0.2,0.4,0.4,0.7,0.7c0.2-0.2,0.5-0.4,0.7-0.6
			c6.8-6.6,17.6-17.1,24.4-23.7c0.3-0.3,0.5-0.5,0.9-0.7c0.6-0.3,1.3-0.2,1.8,0.4c0.5,0.5,0.6,1.2,0.1,1.8C60,7.5,59.7,7.8,59.4,8
			c-4.3,4.2-12.6,12.3-17,16.5C42.3,24.7,42,24.9,41.7,25.1z"/>
	</g>
	<circle class="st0" cx="29.3" cy="9.2" r="0.8"/>
	<circle class="st0" cx="32.7" cy="9.2" r="0.8"/>
	<circle class="st0" cx="36.1" cy="9.2" r="0.8"/>
</g>
</svg>
